<svg version="1.1" id="Layer_1" xmlns="http://www.w3.org/2000/svg" xmlns:xlink="http://www.w3.org/1999/xlink" x="0px" y="0px"
	 width="100%" viewBox="0 0 512 512" enable-background="new 0 0 512 512" xml:space="preserve">
<path fill="#000000" opacity="1.000000" stroke="none" 
	d="
M307.000000,513.000000 
	C204.691513,513.000000 102.883018,513.000000 1.037265,513.000000 
	C1.037265,342.399811 1.037265,171.799637 1.037265,1.099719 
	C171.558502,1.099719 342.117065,1.099719 512.837830,1.099719 
	C512.837830,171.666534 512.837830,342.333252 512.837830,513.000000 
	C444.466278,513.000000 375.983124,513.000000 307.000000,513.000000 
M335.322205,89.146408 
	C330.858154,83.576317 326.854370,77.543541 321.825897,72.540810 
	C313.569061,64.326256 303.511475,59.146214 291.559448,59.192711 
	C289.203217,59.201881 285.584595,60.936543 284.837036,62.795738 
	C283.970764,64.950272 284.937073,68.564934 286.340179,70.756920 
	C289.193298,75.214081 293.172150,78.939339 296.149689,83.330589 
	C301.561432,91.311646 305.889160,99.841537 307.369385,109.964378 
	C301.223480,109.242996 295.458679,108.702286 289.755585,107.779778 
	C288.643677,107.599922 287.570190,106.069138 286.824127,104.934517 
	C283.628693,100.074989 280.873779,94.896317 277.388519,90.262558 
	C268.183472,78.024269 256.833466,68.954750 240.891205,67.343559 
	C237.132492,66.963684 233.331528,66.829315 231.449875,71.027931 
	C229.735168,74.854019 231.803772,77.546219 234.333984,80.306824 
	C241.921906,88.585678 248.024689,97.840645 252.077194,108.849373 
	C225.793716,117.090561 220.280640,138.942322 217.510345,163.356232 
	C216.284561,161.679871 215.775299,161.051651 215.338791,160.376389 
	C206.115723,146.108063 194.710419,133.894623 181.034637,123.796417 
	C157.653244,106.531570 131.067719,97.707817 102.515587,94.357971 
	C100.152954,94.080788 96.702065,95.891342 95.122101,97.839272 
	C92.831734,100.663063 94.636375,103.704674 97.029572,106.221886 
	C101.723373,111.158928 106.737976,115.888374 110.777199,121.329277 
	C118.296860,131.458359 123.416298,142.540665 120.407356,155.733688 
	C118.917961,162.264069 119.589104,163.597290 125.433701,166.930283 
	C139.320099,174.849289 147.261749,186.694550 148.065460,202.786392 
	C148.337494,208.233292 150.249054,211.153229 155.743332,212.663635 
	C174.806473,217.904312 191.215851,227.645172 204.009048,242.954544 
	C205.035583,244.182983 206.209122,246.512100 205.713882,247.603470 
	C199.229462,261.893097 194.265900,277.300385 178.595825,285.072571 
	C175.980179,286.369904 174.293381,286.543793 171.953995,284.960785 
	C166.028946,280.951569 160.033936,277.036560 153.945312,273.280975 
	C148.335800,269.820892 143.795898,271.757477 142.447617,278.214447 
	C136.070267,308.755554 136.407837,339.033569 149.258362,367.893219 
	C173.068451,421.365784 214.588806,451.408661 273.040466,454.595795 
	C331.905487,457.805420 383.258789,425.101624 407.625336,371.431549 
	C411.916382,361.980042 414.217468,351.592377 417.050079,341.527985 
	C418.139557,337.657013 416.267029,334.569092 412.055420,333.754700 
	C407.915863,332.954224 405.355469,335.023590 404.243103,338.942383 
	C403.699249,340.858215 403.383392,342.837494 402.904816,344.773346 
	C385.825073,413.859955 315.239807,455.815704 246.712479,437.619843 
	C185.382858,421.335144 145.398956,362.608368 152.633408,299.435944 
	C153.000427,296.231171 153.392075,293.029175 153.866501,289.031708 
	C159.756912,292.786255 164.901077,295.805878 169.751801,299.239990 
	C173.551926,301.930359 176.819794,301.897034 180.703476,299.336426 
	C194.868240,289.997284 209.249359,280.985229 223.370438,271.581787 
	C226.391647,269.569916 228.317154,269.757965 231.232132,271.690948 
	C245.238724,280.979034 259.506653,289.873291 273.501984,299.177826 
	C277.593964,301.898285 280.898590,301.802185 284.901123,299.157745 
	C299.060486,289.802765 313.417969,280.747559 327.568695,271.379822 
	C330.201019,269.637238 331.962952,269.588196 334.612061,271.342041 
	C348.627350,280.620850 362.898468,289.515808 376.844513,298.895294 
	C381.473022,302.008209 385.193726,301.842224 389.541168,298.698456 
	C394.156158,295.361176 399.098053,292.475983 404.862061,288.773590 
	C405.502014,297.801971 406.047607,305.564331 406.604187,313.325928 
	C406.948273,318.124207 409.607178,321.078064 413.420471,320.923431 
	C417.332550,320.764832 420.182068,317.753082 419.749725,312.917267 
	C418.713409,301.325012 417.506409,289.728027 415.747101,278.227997 
	C414.701843,271.395325 410.028076,269.804718 403.960052,273.582550 
	C398.029205,277.275024 392.122070,281.018616 386.373047,284.984070 
	C383.967224,286.643494 382.237854,286.635712 379.780365,284.995422 
	C369.538635,278.159576 359.120605,271.588440 348.819061,264.841034 
	C347.654602,264.078339 346.177704,262.948608 345.931000,261.763184 
	C344.080200,252.869797 342.502045,243.919662 340.750641,234.515289 
	C343.062469,234.886063 344.964783,235.368927 346.887177,235.470016 
	C357.653015,236.036057 368.516327,237.652359 379.174194,236.787704 
	C404.752960,234.712540 419.928864,215.646698 415.547363,191.305084 
	C414.077332,183.138336 411.037659,174.803619 406.817810,167.667862 
	C394.760681,147.279083 375.763367,134.798553 354.873932,124.763557 
	C352.631500,123.686317 350.543274,121.327141 349.418610,119.051147 
	C344.643585,109.387886 340.258850,99.531761 335.322205,89.146408 
z"/>
<path fill="#F9F9F9" opacity="1.000000" stroke="none" 
	d="
M335.526886,89.446243 
	C340.258850,99.531761 344.643585,109.387886 349.418610,119.051147 
	C350.543274,121.327141 352.631500,123.686317 354.873932,124.763557 
	C375.763367,134.798553 394.760681,147.279083 406.817810,167.667862 
	C411.037659,174.803619 414.077332,183.138336 415.547363,191.305084 
	C419.928864,215.646698 404.752960,234.712540 379.174194,236.787704 
	C368.516327,237.652359 357.653015,236.036057 346.887177,235.470016 
	C344.964783,235.368927 343.062469,234.886063 340.750641,234.515289 
	C342.502045,243.919662 344.080200,252.869797 345.931000,261.763184 
	C346.177704,262.948608 347.654602,264.078339 348.819061,264.841034 
	C359.120605,271.588440 369.538635,278.159576 379.780365,284.995422 
	C382.237854,286.635712 383.967224,286.643494 386.373047,284.984070 
	C392.122070,281.018616 398.029205,277.275024 403.960052,273.582550 
	C410.028076,269.804718 414.701843,271.395325 415.747101,278.227997 
	C417.506409,289.728027 418.713409,301.325012 419.749725,312.917267 
	C420.182068,317.753082 417.332550,320.764832 413.420471,320.923431 
	C409.607178,321.078064 406.948273,318.124207 406.604187,313.325928 
	C406.047607,305.564331 405.502014,297.801971 404.862061,288.773590 
	C399.098053,292.475983 394.156158,295.361176 389.541168,298.698456 
	C385.193726,301.842224 381.473022,302.008209 376.844513,298.895294 
	C362.898468,289.515808 348.627350,280.620850 334.612061,271.342041 
	C331.962952,269.588196 330.201019,269.637238 327.568695,271.379822 
	C313.417969,280.747559 299.060486,289.802765 284.901123,299.157745 
	C280.898590,301.802185 277.593964,301.898285 273.501984,299.177826 
	C259.506653,289.873291 245.238724,280.979034 231.232132,271.690948 
	C228.317154,269.757965 226.391647,269.569916 223.370438,271.581787 
	C209.249359,280.985229 194.868240,289.997284 180.703476,299.336426 
	C176.819794,301.897034 173.551926,301.930359 169.751801,299.239990 
	C164.901077,295.805878 159.756912,292.786255 153.866501,289.031708 
	C153.392075,293.029175 153.000427,296.231171 152.633408,299.435944 
	C145.398956,362.608368 185.382858,421.335144 246.712479,437.619843 
	C315.239807,455.815704 385.825073,413.859955 402.904816,344.773346 
	C403.383392,342.837494 403.699249,340.858215 404.243103,338.942383 
	C405.355469,335.023590 407.915863,332.954224 412.055420,333.754700 
	C416.267029,334.569092 418.139557,337.657013 417.050079,341.527985 
	C414.217468,351.592377 411.916382,361.980042 407.625336,371.431549 
	C383.258789,425.101624 331.905487,457.805420 273.040466,454.595795 
	C214.588806,451.408661 173.068451,421.365784 149.258362,367.893219 
	C136.407837,339.033569 136.070267,308.755554 142.447617,278.214447 
	C143.795898,271.757477 148.335800,269.820892 153.945312,273.280975 
	C160.033936,277.036560 166.028946,280.951569 171.953995,284.960785 
	C174.293381,286.543793 175.980179,286.369904 178.595825,285.072571 
	C194.265900,277.300385 199.229462,261.893097 205.713882,247.603470 
	C206.209122,246.512100 205.035583,244.182983 204.009048,242.954544 
	C191.215851,227.645172 174.806473,217.904312 155.743332,212.663635 
	C150.249054,211.153229 148.337494,208.233292 148.065460,202.786392 
	C147.261749,186.694550 139.320099,174.849289 125.433701,166.930283 
	C119.589104,163.597290 118.917961,162.264069 120.407356,155.733688 
	C123.416298,142.540665 118.296860,131.458359 110.777199,121.329277 
	C106.737976,115.888374 101.723373,111.158928 97.029572,106.221886 
	C94.636375,103.704674 92.831734,100.663063 95.122101,97.839272 
	C96.702065,95.891342 100.152954,94.080788 102.515587,94.357971 
	C131.067719,97.707817 157.653244,106.531570 181.034637,123.796417 
	C194.710419,133.894623 206.115723,146.108063 215.338791,160.376389 
	C215.775299,161.051651 216.284561,161.679871 217.510345,163.356232 
	C220.280640,138.942322 225.793716,117.090561 252.077194,108.849373 
	C248.024689,97.840645 241.921906,88.585678 234.333984,80.306824 
	C231.803772,77.546219 229.735168,74.854019 231.449875,71.027931 
	C233.331528,66.829315 237.132492,66.963684 240.891205,67.343559 
	C256.833466,68.954750 268.183472,78.024269 277.388519,90.262558 
	C280.873779,94.896317 283.628693,100.074989 286.824127,104.934517 
	C287.570190,106.069138 288.643677,107.599922 289.755585,107.779778 
	C295.458679,108.702286 301.223480,109.242996 307.369385,109.964378 
	C305.889160,99.841537 301.561432,91.311646 296.149689,83.330589 
	C293.172150,78.939339 289.193298,75.214081 286.340179,70.756920 
	C284.937073,68.564934 283.970764,64.950272 284.837036,62.795738 
	C285.584595,60.936543 289.203217,59.201881 291.559448,59.192711 
	C303.511475,59.146214 313.569061,64.326256 321.825897,72.540810 
	C326.854370,77.543541 330.858154,83.576317 335.526886,89.446243 
M216.817398,260.079956 
	C217.663467,259.552795 218.605270,259.133514 219.340225,258.481171 
	C224.509003,253.893204 229.343048,254.323959 235.005981,258.213135 
	C247.891708,267.062744 261.262146,275.204956 274.190063,283.995728 
	C277.951721,286.553589 280.515656,286.466553 284.242218,283.971680 
	C299.557800,273.718262 315.112823,263.822449 331.154602,253.422394 
	C329.522217,246.568192 327.877747,239.113693 325.864014,231.760315 
	C325.536591,230.564651 323.709259,229.509476 322.346191,228.910538 
	C311.547272,224.165390 300.518921,219.905930 289.911560,214.772964 
	C281.697510,210.798111 273.938721,205.863129 266.078369,201.185562 
	C262.616211,199.125305 261.484985,195.924332 263.382416,192.196671 
	C265.121765,188.779617 269.061005,187.924561 272.912354,189.968140 
	C274.671143,190.901367 276.322479,192.036285 278.028351,193.070099 
	C296.312897,204.150848 315.417297,213.442535 336.056793,219.283447 
	C351.227051,223.576599 366.577148,226.351089 382.360291,223.019897 
	C395.516785,220.243073 402.889374,211.676010 402.651825,199.469299 
	C398.291779,199.966995 394.893402,198.408661 394.190247,193.836105 
	C393.466766,189.131363 396.842224,187.143417 401.035461,185.980392 
	C397.923462,176.215195 392.352264,168.320526 385.410431,161.245117 
	C378.021027,153.713516 377.320312,153.561234 368.085022,158.600540 
	C364.881683,160.348465 361.845367,160.042267 359.542084,157.233826 
	C357.242157,154.429489 357.460266,151.335236 359.864227,148.593445 
	C361.026154,147.268234 362.446075,146.169266 364.075653,144.666855 
	C342.503052,131.908295 319.524811,125.024033 294.744446,121.702316 
	C296.091949,126.232346 297.866302,130.109955 298.191040,134.105377 
	C298.373383,136.348724 296.727203,139.715637 294.855347,140.860565 
	C293.180969,141.884720 289.770660,141.132050 287.692230,140.063004 
	C286.295166,139.344437 285.690735,136.774323 285.062744,134.920425 
	C280.231812,120.659714 274.344574,106.950020 264.495758,95.316299 
	C263.500397,94.140579 261.900970,93.476273 260.581848,92.574631 
	C260.054291,94.107742 260.158569,94.596138 260.377319,95.026329 
	C267.276337,108.593506 270.606842,122.746033 267.256195,137.936996 
	C266.153381,142.936844 263.310730,145.285843 259.588562,144.641830 
	C255.425125,143.921448 253.590454,140.270142 254.327744,134.973007 
	C254.902466,130.844009 255.054016,126.656113 255.446091,121.851471 
	C240.989319,126.530380 235.142853,137.014709 233.211456,149.481552 
	C231.283157,161.928360 231.053772,174.642899 230.179901,187.247025 
	C229.524353,196.702377 230.236267,206.440231 228.185928,215.568619 
	C224.850586,230.417908 219.754974,244.871826 215.094177,259.948242 
	C215.144638,260.199219 215.195099,260.450165 215.245544,260.701141 
	C215.534241,260.506226 215.822937,260.311310 216.817398,260.079956 
M174.371872,205.069107 
	C188.319870,211.140717 200.577164,219.735168 211.828735,231.274292 
	C213.113800,224.940430 214.472137,219.770721 215.075882,214.514343 
	C215.315277,212.429993 214.483215,209.628967 213.110031,208.047897 
	C203.078384,196.497665 191.038818,187.427765 177.601120,180.145813 
	C172.957428,177.629349 171.723862,174.041122 173.870392,170.399139 
	C175.909119,166.940048 179.581512,165.962814 183.783966,168.696533 
	C193.100433,174.756943 202.158951,181.214233 211.310211,187.527725 
	C212.430054,188.300323 213.473709,189.183319 215.053314,190.401108 
	C210.501297,159.038193 156.164276,114.058685 119.982262,111.238937 
	C129.313309,123.868187 135.806381,137.285431 134.371262,152.739822 
	C144.587952,155.287949 154.445648,157.534332 164.169724,160.257767 
	C169.339417,161.705688 171.202927,165.133347 169.934250,169.089706 
	C168.691925,172.963837 165.037872,174.339111 160.006470,172.811798 
	C156.841934,171.851166 153.683090,170.871826 150.751907,169.971573 
	C153.632858,176.398880 157.696075,182.209503 158.719742,188.513702 
	C160.238297,197.865463 164.342606,203.333115 174.371872,205.069107 
M325.025543,97.485764 
	C317.867157,86.316650 315.420959,83.668564 313.152283,83.473106 
	C315.708374,92.447685 318.342896,101.823631 321.093994,111.165230 
	C321.375061,112.119682 322.195068,113.344475 323.039612,113.629082 
	C326.546936,114.811028 330.159607,115.680466 335.185150,117.064308 
	C331.453125,109.865601 328.411591,103.998772 325.025543,97.485764 
M215.958008,191.216888 
	C215.663376,190.852539 215.368729,190.488174 215.074097,190.123825 
	C215.177505,190.653336 215.280930,191.182846 215.958008,191.216888 
z"/>
<path fill="#030303" opacity="1.000000" stroke="none" 
	d="
M215.402313,259.492615 
	C219.754974,244.871826 224.850586,230.417908 228.185928,215.568619 
	C230.236267,206.440231 229.524353,196.702377 230.179901,187.247025 
	C231.053772,174.642899 231.283157,161.928360 233.211456,149.481552 
	C235.142853,137.014709 240.989319,126.530380 255.446091,121.851471 
	C255.054016,126.656113 254.902466,130.844009 254.327744,134.973007 
	C253.590454,140.270142 255.425125,143.921448 259.588562,144.641830 
	C263.310730,145.285843 266.153381,142.936844 267.256195,137.936996 
	C270.606842,122.746033 267.276337,108.593506 260.377319,95.026329 
	C260.158569,94.596138 260.054291,94.107742 260.581848,92.574631 
	C261.900970,93.476273 263.500397,94.140579 264.495758,95.316299 
	C274.344574,106.950020 280.231812,120.659714 285.062744,134.920425 
	C285.690735,136.774323 286.295166,139.344437 287.692230,140.063004 
	C289.770660,141.132050 293.180969,141.884720 294.855347,140.860565 
	C296.727203,139.715637 298.373383,136.348724 298.191040,134.105377 
	C297.866302,130.109955 296.091949,126.232346 294.744446,121.702316 
	C319.524811,125.024033 342.503052,131.908295 364.075653,144.666855 
	C362.446075,146.169266 361.026154,147.268234 359.864227,148.593445 
	C357.460266,151.335236 357.242157,154.429489 359.542084,157.233826 
	C361.845367,160.042267 364.881683,160.348465 368.085022,158.600540 
	C377.320312,153.561234 378.021027,153.713516 385.410431,161.245117 
	C392.352264,168.320526 397.923462,176.215195 401.035461,185.980392 
	C396.842224,187.143417 393.466766,189.131363 394.190247,193.836105 
	C394.893402,198.408661 398.291779,199.966995 402.651825,199.469299 
	C402.889374,211.676010 395.516785,220.243073 382.360291,223.019897 
	C366.577148,226.351089 351.227051,223.576599 336.056793,219.283447 
	C315.417297,213.442535 296.312897,204.150848 278.028351,193.070099 
	C276.322479,192.036285 274.671143,190.901367 272.912354,189.968140 
	C269.061005,187.924561 265.121765,188.779617 263.382416,192.196671 
	C261.484985,195.924332 262.616211,199.125305 266.078369,201.185562 
	C273.938721,205.863129 281.697510,210.798111 289.911560,214.772964 
	C300.518921,219.905930 311.547272,224.165390 322.346191,228.910538 
	C323.709259,229.509476 325.536591,230.564651 325.864014,231.760315 
	C327.877747,239.113693 329.522217,246.568192 331.154602,253.422394 
	C315.112823,263.822449 299.557800,273.718262 284.242218,283.971680 
	C280.515656,286.466553 277.951721,286.553589 274.190063,283.995728 
	C261.262146,275.204956 247.891708,267.062744 235.005981,258.213135 
	C229.343048,254.323959 224.509003,253.893204 219.340225,258.481171 
	C218.605270,259.133514 217.663467,259.552795 216.293900,259.934601 
	C215.770401,259.789246 215.402313,259.492615 215.402313,259.492615 
M311.175079,144.488846 
	C309.804840,145.421249 308.355957,146.257797 307.079834,147.304901 
	C303.882141,149.928741 302.537170,153.109039 305.028717,156.894470 
	C307.254211,160.275665 311.213196,160.735046 315.063385,157.778564 
	C319.568634,154.319077 323.731567,154.185349 328.160065,157.787125 
	C331.498718,160.502548 334.971619,160.402985 337.962250,157.247253 
	C340.528046,154.539795 339.765839,150.207336 336.124512,147.234070 
	C328.728363,141.194916 320.570648,140.266373 311.175079,144.488846 
M372.465485,203.075592 
	C376.933929,205.518570 380.404541,205.124878 382.419037,201.737564 
	C384.436768,198.344894 383.897003,194.827286 380.506866,193.140717 
	C378.437897,192.111420 374.771088,192.144073 372.890686,193.356873 
	C369.521301,195.529984 369.531708,199.183746 372.465485,203.075592 
z"/>
<path fill="#050505" opacity="1.000000" stroke="none" 
	d="
M174.012634,204.944305 
	C164.342606,203.333115 160.238297,197.865463 158.719742,188.513702 
	C157.696075,182.209503 153.632858,176.398880 150.751907,169.971573 
	C153.683090,170.871826 156.841934,171.851166 160.006470,172.811798 
	C165.037872,174.339111 168.691925,172.963837 169.934250,169.089706 
	C171.202927,165.133347 169.339417,161.705688 164.169724,160.257767 
	C154.445648,157.534332 144.587952,155.287949 134.371262,152.739822 
	C135.806381,137.285431 129.313309,123.868187 119.982262,111.238937 
	C156.164276,114.058685 210.501297,159.038193 215.053314,190.401108 
	C213.473709,189.183319 212.430054,188.300323 211.310211,187.527725 
	C202.158951,181.214233 193.100433,174.756943 183.783966,168.696533 
	C179.581512,165.962814 175.909119,166.940048 173.870392,170.399139 
	C171.723862,174.041122 172.957428,177.629349 177.601120,180.145813 
	C191.038818,187.427765 203.078384,196.497665 213.110031,208.047897 
	C214.483215,209.628967 215.315277,212.429993 215.075882,214.514343 
	C214.472137,219.770721 213.113800,224.940430 211.828735,231.274292 
	C200.577164,219.735168 188.319870,211.140717 174.012634,204.944305 
z"/>
<path fill="#101010" opacity="1.000000" stroke="none" 
	d="
M325.197815,97.808853 
	C328.411591,103.998772 331.453125,109.865601 335.185150,117.064308 
	C330.159607,115.680466 326.546936,114.811028 323.039612,113.629082 
	C322.195068,113.344475 321.375061,112.119682 321.093994,111.165230 
	C318.342896,101.823631 315.708374,92.447685 313.152283,83.473106 
	C315.420959,83.668564 317.867157,86.316650 325.197815,97.808853 
z"/>
<path fill="#050505" opacity="1.000000" stroke="none" 
	d="
M215.671173,191.464630 
	C215.280930,191.182846 215.177505,190.653336 215.074097,190.123825 
	C215.368729,190.488174 215.663376,190.852539 215.671173,191.464630 
z"/>
<path fill="#030303" opacity="1.000000" stroke="none" 
	d="
M215.941010,259.952820 
	C215.822937,260.311310 215.534241,260.506226 215.245544,260.701141 
	C215.195099,260.450165 215.144638,260.199219 215.248245,259.720428 
	C215.402313,259.492615 215.770401,259.789246 215.941010,259.952820 
z"/>
<path fill="#F7F7F7" opacity="1.000000" stroke="none" 
	d="
M311.513306,144.303009 
	C320.570648,140.266373 328.728363,141.194916 336.124512,147.234070 
	C339.765839,150.207336 340.528046,154.539795 337.962250,157.247253 
	C334.971619,160.402985 331.498718,160.502548 328.160065,157.787125 
	C323.731567,154.185349 319.568634,154.319077 315.063385,157.778564 
	C311.213196,160.735046 307.254211,160.275665 305.028717,156.894470 
	C302.537170,153.109039 303.882141,149.928741 307.079834,147.304901 
	C308.355957,146.257797 309.804840,145.421249 311.513306,144.303009 
z"/>
<path fill="#F2F2F2" opacity="1.000000" stroke="none" 
	d="
M372.190643,202.816711 
	C369.531708,199.183746 369.521301,195.529984 372.890686,193.356873 
	C374.771088,192.144073 378.437897,192.111420 380.506866,193.140717 
	C383.897003,194.827286 384.436768,198.344894 382.419037,201.737564 
	C380.404541,205.124878 376.933929,205.518570 372.190643,202.816711 
z"/>
</svg>